<svg width="1024" height="1024" viewBox="0 0 1024 1024" fill="none" xmlns="http://www.w3.org/2000/svg">
<path fill-rule="evenodd" clip-rule="evenodd" d="M795.6 133.4C795.6 125.116 788.884 118.4 780.6 118.4H244.2C235.916 118.4 229.2 125.116 229.2 133.4V893.8C229.2 902.084 235.916 908.8 244.2 908.8H780.6C788.884 908.8 795.6 902.084 795.6 893.8V133.4ZM192 51.2C175.431 51.2 162 64.6314 162 81.1999V946C162 962.569 175.431 976 192 976H832.8C849.369 976 862.8 962.569 862.8 946V81.2C862.8 64.6314 849.369 51.2 832.8 51.2H192Z" fill="white"/>
<path d="M284.592 447.153L431.413 629.041C433.714 632.004 437.396 633.6 441.309 633.6H582.607C585.138 633.6 586.519 630.865 584.908 629.041L286.893 260.25C285.052 258.198 281.6 259.338 281.6 262.073V439.403C281.83 442.138 282.751 444.873 284.592 447.153Z" fill="white"/>
<path d="M739.2 262.056V438.314C739.2 441.259 738.068 443.978 736.256 446.017L692.318 500.842C690.053 503.788 686.656 505.6 682.806 505.6H543.746C541.254 505.6 539.896 502.655 541.481 500.842L733.991 260.243C735.803 258.204 739.2 259.337 739.2 262.056Z" fill="white"/>
<circle cx="512" cy="822.4" r="38.4" fill="white"/>
</svg>
